<?xml version="1.0" standalone="no"?>
<!DOCTYPE svg PUBLIC "-//W3C//DTD SVG 20010904//EN"
 "http://www.w3.org/TR/2001/REC-SVG-20010904/DTD/svg10.dtd">
<svg version="1.0" xmlns="http://www.w3.org/2000/svg"
 width="633.000000pt" height="404.000000pt" viewBox="0 0 633.000000 404.000000"
 preserveAspectRatio="xMidYMid meet">

<g transform="translate(0.000000,404.000000) scale(0.100000,-0.100000)"
fill="#000000" stroke="none">
<path d="M0 2020 l0 -2020 3165 0 3165 0 0 2020 0 2020 -3165 0 -3165 0 0
-2020z m3370 1549 c267 -33 485 -113 703 -258 716 -479 901 -1460 411 -2178
-149 -219 -378 -415 -611 -524 -142 -66 -276 -108 -433 -134 -101 -17 -361
-19 -463 -4 -521 78 -965 404 -1188 873 -105 222 -139 369 -146 636 -4 171 -2
209 17 310 48 256 147 480 307 690 46 61 201 215 278 276 207 166 500 281 800
317 67 8 246 6 325 -4z"/>
<path d="M2960 3506 c-564 -100 -1003 -469 -1188 -996 -93 -265 -107 -585 -37
-859 70 -277 188 -484 395 -692 225 -226 464 -356 780 -421 151 -31 431 -31
575 0 324 71 584 216 802 446 489 517 551 1288 150 1881 -40 59 -113 147 -178
215 -190 196 -472 349 -771 415 -100 23 -426 29 -528 11z m425 -81 c197 -28
353 -81 515 -173 128 -74 198 -128 310 -241 147 -149 256 -324 325 -523 150
-430 89 -892 -168 -1273 -53 -78 -76 -104 -172 -201 -195 -196 -433 -324 -716
-386 -147 -31 -419 -32 -562 0 -250 55 -452 153 -628 303 -330 282 -508 662
-509 1084 0 467 217 890 598 1162 288 205 662 298 1007 248z"/>
<path d="M3082 3409 c-317 -24 -633 -169 -866 -397 -120 -118 -198 -228 -293
-413 -24 -47 -74 -201 -95 -289 -38 -165 -35 -453 7 -615 76 -295 246 -571
461 -747 252 -206 528 -311 849 -325 670 -28 1273 441 1416 1102 25 117 35
352 20 466 -68 511 -403 939 -883 1128 -190 75 -407 107 -616 90z m232 -747
l14 -47 13 28 c17 37 28 17 19 -34 -6 -33 -5 -39 7 -34 12 4 14 0 8 -22 -4
-16 -7 -40 -6 -55 0 -14 -6 -32 -14 -38 -8 -7 -12 -16 -9 -21 3 -5 -1 -19 -8
-31 -7 -13 -11 -26 -10 -30 4 -15 -61 -58 -86 -57 l-27 1 30 13 c23 11 26 14
10 15 -17 0 -16 3 10 25 19 15 24 24 15 25 -9 0 -2 12 20 31 30 27 32 30 11
24 l-24 -7 22 28 c15 19 18 30 10 34 -8 6 -8 13 0 28 15 29 15 50 -1 34 -21
-21 -26 -13 -22 36 l4 47 -14 -41 c-20 -60 -44 -103 -84 -151 -42 -49 -74 -68
-44 -25 34 50 37 56 19 49 -13 -5 -17 0 -17 21 l-1 27 -15 -27 c-26 -50 -34
-29 -9 25 14 28 25 58 25 65 0 7 5 10 10 7 6 -3 10 -21 10 -38 0 -24 3 -28 10
-17 7 12 11 10 18 -10 9 -24 9 -24 30 16 11 22 26 68 33 101 7 34 16 60 21 57
4 -3 14 -26 22 -52z m-284 -182 c0 -5 -2 -10 -4 -10 -3 0 -8 5 -11 10 -3 6 -1
10 4 10 6 0 11 -4 11 -10z m40 -20 c0 -5 -4 -10 -10 -10 -5 0 -10 5 -10 10 0
6 5 10 10 10 6 0 10 -4 10 -10z m9 -162 c21 -19 42 -28 65 -28 28 0 41 -9 85
-60 60 -69 54 -82 -7 -16 -29 31 -50 45 -78 49 -72 12 -125 75 -123 147 0 33
1 33 14 -15 8 -32 24 -59 44 -77z m286 -58 c28 -1 29 -2 12 -15 -14 -10 -26
-11 -48 -3 -37 13 -52 34 -18 25 13 -4 38 -7 54 -7z m1 -53 c11 -11 -29 -8
-46 3 -12 8 -9 10 12 7 15 -1 30 -6 34 -10z m-21 -27 c3 -5 -1 -10 -9 -10 -8
0 -18 5 -21 10 -3 6 1 10 9 10 8 0 18 -4 21 -10z m-905 -231 c0 -6 -8 -23 -19
-37 -30 -43 -81 -132 -81 -142 0 -6 19 -11 43 -11 42 -2 42 -2 -10 -8 -28 -4
-54 -9 -56 -11 -9 -9 -77 -128 -77 -134 0 -3 45 -6 101 -6 64 0 98 -4 94 -10
-8 -14 -222 -13 -230 1 -5 8 -10 313 -6 362 1 12 241 9 241 -4z m261 -56 c17
-37 32 -69 34 -71 2 -2 41 28 86 67 45 39 86 71 90 71 21 0 5 -20 -59 -73 -89
-74 -104 -91 -96 -110 5 -13 9 -14 18 -4 43 41 200 183 207 185 5 2 9 -2 9
-10 0 -24 -153 -358 -164 -358 -6 0 -35 55 -65 123 -30 67 -65 144 -78 171
-22 48 -29 76 -18 76 3 0 19 -30 36 -67z m379 -113 c0 -153 2 -180 15 -180 13
0 15 27 15 180 0 116 4 180 10 180 7 0 10 -65 8 -187 l-3 -188 -30 0 -30 0 -3
188 c-2 122 1 187 8 187 6 0 10 -64 10 -180z m161 113 c17 -37 32 -69 34 -71
2 -3 40 28 84 68 44 39 85 70 92 68 13 -4 -48 -65 -113 -115 -36 -27 -56 -59
-44 -70 5 -6 54 34 166 136 86 79 88 74 24 -70 -25 -57 -60 -137 -77 -176 -17
-40 -37 -73 -44 -73 -7 0 -19 16 -27 35 -8 18 -42 94 -75 168 -55 121 -71 167
-56 167 3 0 19 -30 36 -67z m481 -108 c69 -169 82 -194 94 -183 5 6 -55 165
-110 290 -14 32 -21 60 -16 63 5 3 11 2 13 -2 14 -25 147 -351 147 -362 0 -8
-11 -11 -32 -9 -35 3 -42 13 -78 101 l-20 49 -41 -33 -40 -32 -33 32 c-17 17
-34 31 -37 31 -4 0 -19 -30 -34 -67 -29 -71 -41 -90 -50 -82 -4 5 40 122 85
224 9 22 28 66 40 98 13 31 28 56 33 54 5 -1 40 -79 79 -172z m198 1 c0 -144
3 -175 15 -180 12 -4 15 20 17 169 2 106 7 176 13 178 6 1 11 -25 13 -60 2
-50 7 -65 23 -73 11 -6 25 -7 32 -3 6 4 39 8 72 8 l60 0 5 63 c3 34 10 62 15
62 6 0 10 -67 10 -180 0 -112 -4 -181 -10 -182 -6 -2 -11 30 -13 78 l-3 80
-32 2 c-18 1 -45 1 -62 1 -16 0 -44 0 -62 -1 l-32 -2 -3 -80 -3 -81 -35 0 -35
0 -3 188 c-2 122 1 187 8 187 6 0 10 -62 10 -174z m-1447 -326 c7 -28 -3 -60
-19 -60 -9 0 -14 -11 -14 -30 0 -16 -4 -30 -10 -30 -6 0 -10 30 -10 70 0 67 1
70 24 70 15 0 26 -7 29 -20z m37 -40 c0 -33 4 -60 10 -60 6 0 10 -4 10 -10 0
-5 -9 -10 -20 -10 -18 0 -20 7 -20 70 0 40 4 70 10 70 6 0 10 -27 10 -60z m88
-13 c2 -42 -1 -67 -8 -67 -5 0 -10 10 -11 23 0 22 -1 21 -12 -3 -11 -23 -12
-20 -15 34 -4 70 2 89 25 84 15 -3 19 -16 21 -71z m49 46 l11 -28 1 28 c1 15
6 27 11 27 6 0 10 -30 10 -70 0 -74 -9 -88 -27 -42 l-11 27 -1 -27 c-1 -16 -5
-28 -11 -28 -6 0 -10 30 -10 70 0 74 9 88 27 43z m114 0 c1 -21 2 -23 6 -8 12
50 23 34 17 -25 -8 -81 -19 -95 -27 -36 -4 25 -9 57 -13 71 -4 15 -2 25 5 25
6 0 12 -12 12 -27z m97 -40 c-3 -60 -5 -68 -23 -68 -17 0 -20 8 -23 54 -4 66
1 81 28 81 19 0 21 -5 18 -67z m42 12 c0 -30 5 -55 10 -55 6 0 10 25 10 56 0
30 4 53 9 50 5 -3 7 -27 6 -53 -2 -27 -4 -56 -4 -66 -1 -13 -7 -17 -23 -15
-21 3 -23 9 -26 71 -2 42 1 67 8 67 6 0 10 -23 10 -55z m107 -17 c1 -39 -2
-68 -7 -68 -6 0 -10 14 -10 30 0 17 -5 30 -11 30 -5 0 -8 -4 -5 -9 4 -5 2 -20
-3 -33 -8 -18 -10 -6 -10 50 -1 71 0 73 22 70 20 -3 22 -9 24 -70z m117 34
c12 -44 -3 -97 -29 -97 -17 0 -20 8 -23 54 -2 29 -1 60 2 68 10 25 40 10 50
-25z m74 -34 c1 -41 -2 -68 -8 -68 -5 0 -10 14 -10 30 0 17 -4 30 -10 30 -5 0
-10 -13 -10 -30 0 -16 -4 -30 -8 -30 -6 0 -9 124 -3 138 0 2 11 2 24 0 20 -3
22 -9 25 -70z m62 62 c0 -5 -4 -10 -10 -10 -5 0 -10 -9 -10 -20 0 -11 5 -20
12 -20 9 0 9 -3 0 -12 -15 -15 -16 -48 -2 -48 6 0 10 -4 10 -10 0 -5 -9 -10
-20 -10 -18 0 -20 7 -20 70 0 63 2 70 20 70 11 0 20 -4 20 -10z m68 -63 c2
-42 -1 -67 -8 -67 -5 0 -11 10 -11 23 l-2 22 -4 -22 c-9 -46 -23 -21 -23 40 0
68 5 79 30 75 11 -3 16 -19 18 -71z m46 57 c3 -9 6 -25 6 -37 0 -18 2 -19 10
-7 5 8 10 25 10 38 0 12 5 22 10 22 6 0 10 -30 10 -70 0 -63 -2 -70 -20 -70
-14 0 -20 7 -21 23 l-2 22 -4 -22 c-9 -48 -23 -20 -23 47 0 66 10 90 24 54z
m131 -6 l8 -23 4 23 c7 33 23 27 25 -10 l1 -33 4 33 c2 17 9 32 15 32 7 0 9
-16 4 -46 -3 -26 -6 -57 -6 -70 0 -30 -18 -31 -30 -1 l-9 22 0 -22 c-1 -24
-19 -32 -25 -10 -3 6 -7 38 -9 70 -6 57 4 76 18 35z m125 12 c0 -5 -4 -10 -10
-10 -5 0 -10 -9 -10 -20 0 -11 5 -20 12 -20 9 0 9 -3 0 -12 -15 -15 -16 -48
-2 -48 6 0 10 -4 10 -10 0 -5 -9 -10 -20 -10 -18 0 -20 7 -20 70 0 63 2 70 20
70 11 0 20 -4 20 -10z m65 -60 c0 -55 -3 -65 -19 -68 -26 -5 -36 15 -36 74 0
57 5 66 35 62 18 -3 20 -10 20 -68z m73 3 c-3 -62 -5 -68 -25 -71 -22 -3 -23
0 -23 67 0 69 1 71 25 71 26 0 26 -1 23 -67z m42 -3 c0 -40 -4 -70 -10 -70 -6
0 -10 30 -10 70 0 40 4 70 10 70 6 0 10 -30 10 -70z m49 38 l9 -33 1 33 c1 17
6 32 11 32 6 0 10 -30 10 -71 0 -51 -3 -70 -12 -67 -7 3 -15 15 -19 29 -7 24
-7 24 -8 -3 -1 -16 -5 -28 -11 -28 -6 0 -10 30 -10 70 0 74 13 91 29 38z m98
17 c8 -22 -6 -33 -17 -15 -6 9 -10 10 -10 3 0 -6 -3 -19 -6 -28 -5 -12 -2 -16
12 -13 16 2 19 -3 19 -32 0 -28 -4 -35 -20 -35 -17 0 -20 8 -23 54 -2 29 -1
60 2 67 7 19 35 18 43 -1z"/>
<path d="M2210 1810 c0 -60 3 -110 8 -110 4 0 20 25 37 55 16 30 33 55 37 55
4 0 8 5 8 10 0 6 11 28 25 50 14 22 25 42 25 45 0 3 -31 5 -70 5 l-70 0 0
-110z"/>
<path d="M2367 1898 c-8 -13 -39 -62 -70 -110 -70 -109 -87 -142 -87 -168 0
-45 4 -38 173 251 23 39 26 49 13 49 -8 0 -22 -10 -29 -22z"/>
<path d="M2920 1857 c-20 -17 -61 -55 -93 -84 l-58 -52 28 -62 28 -61 67 146
c36 80 65 146 65 146 -1 0 -18 -15 -37 -33z"/>
<path d="M3409 1814 c-41 -37 -80 -72 -88 -80 -12 -11 -11 -21 10 -68 13 -31
27 -56 30 -56 3 0 12 12 19 28 27 58 108 242 106 242 -1 0 -36 -30 -77 -66z"/>
<path d="M3616 1839 c-18 -50 -18 -51 2 -72 21 -20 22 -20 42 -2 11 10 20 23
20 29 0 17 -32 96 -39 96 -4 0 -15 -23 -25 -51z"/>
<path d="M3580 1747 c0 -7 13 -26 30 -42 26 -25 31 -26 47 -14 39 31 50 47 43
59 -6 9 -13 7 -29 -9 -26 -26 -33 -26 -56 -1 -21 23 -35 26 -35 7z"/>
<path d="M4050 1779 c-13 -6 -35 -7 -47 -4 -28 7 -30 -10 -3 -25 15 -8 27 -7
47 4 23 11 33 12 58 1 19 -8 36 -9 48 -3 27 14 20 25 -15 24 -18 0 -40 3 -48
6 -8 4 -26 2 -40 -3z"/>
<path d="M2440 1420 c0 -11 5 -20 10 -20 6 0 10 9 10 20 0 11 -4 20 -10 20 -5
0 -10 -9 -10 -20z"/>
<path d="M2572 1410 c0 -19 2 -27 5 -17 2 9 2 25 0 35 -3 9 -5 1 -5 -18z"/>
<path d="M2833 1390 c0 -30 2 -43 4 -27 2 15 2 39 0 55 -2 15 -4 2 -4 -28z"/>
<path d="M2976 1432 c-2 -4 -1 -14 5 -22 7 -12 9 -10 9 8 0 23 -5 28 -14 14z"/>
<path d="M3090 1395 c0 -25 5 -45 10 -45 6 0 10 20 10 45 0 25 -4 45 -10 45
-5 0 -10 -20 -10 -45z"/>
<path d="M3160 1425 c0 -8 5 -15 10 -15 6 0 10 7 10 15 0 8 -4 15 -10 15 -5 0
-10 -7 -10 -15z"/>
<path d="M3302 1410 c0 -19 2 -27 5 -17 2 9 2 25 0 35 -3 9 -5 1 -5 -18z"/>
<path d="M3663 1395 c1 -25 5 -45 9 -45 5 0 8 20 8 45 0 25 -4 45 -10 45 -5 0
-8 -20 -7 -45z"/>
<path d="M3743 1390 c0 -30 2 -43 4 -27 2 15 2 39 0 55 -2 15 -4 2 -4 -28z"/>
<path d="M3926 1372 c-2 -4 -1 -14 5 -22 7 -12 9 -10 9 8 0 23 -5 28 -14 14z"/>
</g>
</svg>
